<svg width="1280" height="720" viewBox="0 0 1280 720" fill="none" xmlns="http://www.w3.org/2000/svg">
<g clip-path="url(#clip0_7_2723)">
<rect width="1280" height="720" fill="#F4F5F8"/>
<rect width="200" height="720" fill="#1B1F3B"/>
<rect opacity="0.08" x="24" y="24" width="32" height="32" rx="8" fill="white"/>
<rect opacity="0.18" x="16" y="88" width="168" height="36" rx="8" fill="#4AE0B3"/>
<rect opacity="0.05" x="16" y="132" width="168" height="36" rx="8" fill="white"/>
<rect opacity="0.05" x="16" y="176" width="168" height="36" rx="8" fill="white"/>
<rect opacity="0.05" x="16" y="220" width="168" height="36" rx="8" fill="white"/>
<rect opacity="0.05" x="16" y="264" width="168" height="36" rx="8" fill="white"/>
<rect opacity="0.05" x="16" y="308" width="168" height="36" rx="8" fill="white"/>
<rect opacity="0.05" x="16" y="352" width="168" height="36" rx="8" fill="white"/>
<rect opacity="0.05" x="16" y="396" width="168" height="36" rx="8" fill="white"/>
<rect x="200" width="1080" height="64" fill="white"/>
<rect x="232" y="16" width="180" height="32" rx="16" fill="#F1F2F6"/>
<rect x="1000" y="16" width="130" height="32" rx="16" fill="#2171FC"/>
<rect x="1244" y="16" width="32" height="32" rx="16" fill="#D9DBE2"/>
<rect x="1148" y="20" width="24" height="24" rx="6" fill="#D9DBE2"/>
<rect x="1188" y="20" width="24" height="24" rx="6" fill="#D9DBE2"/>
<rect opacity="0.6" x="232" y="92" width="320" height="28" rx="6" fill="#D9DBE2"/>
<g filter="url(#filter0_d_7_2723)">
<rect x="1036" y="88" width="220" height="36" rx="8" fill="white"/>
<rect x="1036.5" y="88.5" width="219" height="35" rx="7.5" stroke="#E8EBF0"/>
</g>
<rect x="232" y="144" width="244" height="90" rx="14" fill="#EAE8FB"/>
<rect x="492" y="144" width="244" height="90" rx="14" fill="#FCF1E0"/>
<rect x="752" y="144" width="244" height="90" rx="14" fill="#E1F6E9"/>
<rect x="1012" y="144" width="244" height="90" rx="14" fill="#FCE8EE"/>
<g filter="url(#filter1_d_7_2723)">
<rect x="232" y="254" width="504" height="220" rx="14" fill="white"/>
</g>
<g filter="url(#filter2_d_7_2723)">
<rect x="752" y="254" width="504" height="220" rx="14" fill="white"/>
</g>
<g filter="url(#filter3_d_7_2723)">
<rect x="232" y="490" width="504" height="214" rx="14" fill="white"/>
</g>
<g filter="url(#filter4_d_7_2723)">
<rect x="752" y="490" width="504" height="214" rx="14" fill="white"/>
</g>
</g>
<defs>
<filter id="filter0_d_7_2723" x="1020" y="76" width="252" height="68" filterUnits="userSpaceOnUse" color-interpolation-filters="sRGB">
<feFlood flood-opacity="0" result="BackgroundImageFix"/>
<feColorMatrix in="SourceAlpha" type="matrix" values="0 0 0 0 0 0 0 0 0 0 0 0 0 0 0 0 0 0 127 0" result="hardAlpha"/>
<feOffset dy="4"/>
<feGaussianBlur stdDeviation="8"/>
<feColorMatrix type="matrix" values="0 0 0 0 0 0 0 0 0 0 0 0 0 0 0 0 0 0 0.06 0"/>
<feBlend mode="normal" in2="BackgroundImageFix" result="effect1_dropShadow_7_2723"/>
<feBlend mode="normal" in="SourceGraphic" in2="effect1_dropShadow_7_2723" result="shape"/>
</filter>
<filter id="filter1_d_7_2723" x="216" y="242" width="536" height="252" filterUnits="userSpaceOnUse" color-interpolation-filters="sRGB">
<feFlood flood-opacity="0" result="BackgroundImageFix"/>
<feColorMatrix in="SourceAlpha" type="matrix" values="0 0 0 0 0 0 0 0 0 0 0 0 0 0 0 0 0 0 127 0" result="hardAlpha"/>
<feOffset dy="4"/>
<feGaussianBlur stdDeviation="8"/>
<feColorMatrix type="matrix" values="0 0 0 0 0 0 0 0 0 0 0 0 0 0 0 0 0 0 0.06 0"/>
<feBlend mode="normal" in2="BackgroundImageFix" result="effect1_dropShadow_7_2723"/>
<feBlend mode="normal" in="SourceGraphic" in2="effect1_dropShadow_7_2723" result="shape"/>
</filter>
<filter id="filter2_d_7_2723" x="736" y="242" width="536" height="252" filterUnits="userSpaceOnUse" color-interpolation-filters="sRGB">
<feFlood flood-opacity="0" result="BackgroundImageFix"/>
<feColorMatrix in="SourceAlpha" type="matrix" values="0 0 0 0 0 0 0 0 0 0 0 0 0 0 0 0 0 0 127 0" result="hardAlpha"/>
<feOffset dy="4"/>
<feGaussianBlur stdDeviation="8"/>
<feColorMatrix type="matrix" values="0 0 0 0 0 0 0 0 0 0 0 0 0 0 0 0 0 0 0.06 0"/>
<feBlend mode="normal" in2="BackgroundImageFix" result="effect1_dropShadow_7_2723"/>
<feBlend mode="normal" in="SourceGraphic" in2="effect1_dropShadow_7_2723" result="shape"/>
</filter>
<filter id="filter3_d_7_2723" x="216" y="478" width="536" height="246" filterUnits="userSpaceOnUse" color-interpolation-filters="sRGB">
<feFlood flood-opacity="0" result="BackgroundImageFix"/>
<feColorMatrix in="SourceAlpha" type="matrix" values="0 0 0 0 0 0 0 0 0 0 0 0 0 0 0 0 0 0 127 0" result="hardAlpha"/>
<feOffset dy="4"/>
<feGaussianBlur stdDeviation="8"/>
<feColorMatrix type="matrix" values="0 0 0 0 0 0 0 0 0 0 0 0 0 0 0 0 0 0 0.06 0"/>
<feBlend mode="normal" in2="BackgroundImageFix" result="effect1_dropShadow_7_2723"/>
<feBlend mode="normal" in="SourceGraphic" in2="effect1_dropShadow_7_2723" result="shape"/>
</filter>
<filter id="filter4_d_7_2723" x="736" y="478" width="536" height="246" filterUnits="userSpaceOnUse" color-interpolation-filters="sRGB">
<feFlood flood-opacity="0" result="BackgroundImageFix"/>
<feColorMatrix in="SourceAlpha" type="matrix" values="0 0 0 0 0 0 0 0 0 0 0 0 0 0 0 0 0 0 127 0" result="hardAlpha"/>
<feOffset dy="4"/>
<feGaussianBlur stdDeviation="8"/>
<feColorMatrix type="matrix" values="0 0 0 0 0 0 0 0 0 0 0 0 0 0 0 0 0 0 0.06 0"/>
<feBlend mode="normal" in2="BackgroundImageFix" result="effect1_dropShadow_7_2723"/>
<feBlend mode="normal" in="SourceGraphic" in2="effect1_dropShadow_7_2723" result="shape"/>
</filter>
<clipPath id="clip0_7_2723">
<rect width="1280" height="720" fill="white"/>
</clipPath>
</defs>
</svg>
